<svg width="24" height="24" viewBox="0 0 24 24" fill="currentColor" xmlns="http://www.w3.org/2000/svg">
<path d="M20.71 16.465L17.34 13.085C17.98 13.305 18.57 13.565 19.11 13.845C20.08 14.355 20.69 15.365 20.71 16.465ZM21.9 20.485L20.49 21.895L17.88 19.295H4.70998V16.515C4.70998 15.395 5.31998 14.365 6.31998 13.855C7.60998 13.195 9.18997 12.635 10.99 12.405L2.09998 3.51501L3.50998 2.10501L21.9 20.485ZM15.88 17.295L12.88 14.295C12.82 14.295 12.77 14.295 12.71 14.295C10.34 14.295 8.41998 15.025 7.22998 15.635C6.90998 15.795 6.70998 16.135 6.70998 16.515V17.295H15.88ZM12.71 5.29501C13.81 5.29501 14.71 6.19501 14.71 7.29501C14.71 8.15501 14.17 8.88501 13.41 9.16501L14.89 10.645C15.99 9.93501 16.71 8.69501 16.71 7.29501C16.71 5.08501 14.92 3.29501 12.71 3.29501C11.31 3.29501 10.07 4.01501 9.35998 5.11501L10.84 6.59501C11.12 5.83501 11.85 5.29501 12.71 5.29501Z" fill="black"/>
</svg>
