<svg width="18" height="18" viewBox="0 0 18 18" fill="none" xmlns="http://www.w3.org/2000/svg">
<path d="M9.00088 9.80219C9.36367 9.80219 9.65776 10.0963 9.65776 10.4591C9.65776 10.8219 9.36367 11.116 9.00088 11.116C8.6381 11.116 8.344 10.8219 8.344 10.4591C8.344 10.0963 8.6381 9.80219 9.00088 9.80219Z" fill="#373737"/>
<path fill-rule="evenodd" clip-rule="evenodd" d="M8.34932 0.656045C8.34932 0.293721 8.64304 0 9.00536 0H11.5949C11.9573 0 12.251 0.293721 12.251 0.656045C12.251 1.01837 11.9573 1.31209 11.5949 1.31209H9.66141V6.39822C11.6192 6.71422 13.1144 8.41201 13.1144 10.459C13.1144 12.7309 11.2727 14.5726 9.00088 14.5726C6.72903 14.5726 4.88733 12.7309 4.88733 10.459C4.88733 8.40889 6.38708 6.70905 8.34932 6.39678V0.656045ZM6.19941 10.459C6.19941 8.91182 7.45367 7.65756 9.00088 7.65756C10.5481 7.65756 11.8024 8.91182 11.8024 10.459C11.8024 12.0062 10.5481 13.2605 9.00088 13.2605C7.45367 13.2605 6.19941 12.0062 6.19941 10.459Z" fill="#373737"/>
<path d="M12.189 3.62357C11.8608 3.47023 11.4703 3.61203 11.317 3.9403C11.1636 4.26857 11.3054 4.659 11.6337 4.81235C13.7592 5.80522 15.2297 7.96113 15.2297 10.4591C15.2297 13.8992 12.4409 16.6879 9.00088 16.6879C5.56083 16.6879 2.77211 13.8992 2.77211 10.4591C2.77211 7.96922 4.23307 5.81921 6.34742 4.82203C6.67513 4.66748 6.8155 4.27653 6.66094 3.94882C6.50639 3.62112 6.11544 3.48075 5.78774 3.6353C3.23134 4.84096 1.46002 7.44253 1.46002 10.4591C1.46002 14.6238 4.83618 18 9.00088 18C13.1656 18 16.5417 14.6238 16.5417 10.4591C16.5417 7.43272 14.7589 4.82405 12.189 3.62357Z" fill="#373737"/>
</svg>
