<svg width="48" height="48" viewBox="0 0 48 48" fill="none" xmlns="http://www.w3.org/2000/svg">
<path d="M23.999 26.1392C24.9664 26.1392 25.7507 26.9234 25.7507 27.8909C25.7507 28.8583 24.9664 29.6426 23.999 29.6426C23.0315 29.6426 22.2473 28.8583 22.2473 27.8909C22.2473 26.9234 23.0315 26.1392 23.999 26.1392Z" fill="#373737"/>
<path fill-rule="evenodd" clip-rule="evenodd" d="M22.2615 1.74945C22.2615 0.783257 23.0447 0 24.0109 0H30.9165C31.8827 0 32.6659 0.783257 32.6659 1.74945C32.6659 2.71565 31.8827 3.49891 30.9165 3.49891H25.7604V17.0619C30.9813 17.9046 34.9685 22.432 34.9685 27.8907C34.9685 33.949 30.0573 38.8602 23.999 38.8602C17.9407 38.8602 13.0295 33.949 13.0295 27.8907C13.0295 22.4237 17.0288 17.8908 22.2615 17.0581V1.74945ZM16.5284 27.8907C16.5284 23.7648 19.8731 20.4202 23.999 20.4202C28.1249 20.4202 31.4696 23.7648 31.4696 27.8907C31.4696 32.0166 28.1249 35.3613 23.999 35.3613C19.8731 35.3613 16.5284 32.0166 16.5284 27.8907Z" fill="#373737"/>
<path d="M32.5007 9.66286C31.6253 9.25393 30.5842 9.63208 30.1753 10.5075C29.7663 11.3829 30.1445 12.424 31.0199 12.8329C36.6877 15.4806 40.609 21.2297 40.609 27.891C40.609 37.0645 33.1725 44.5011 23.999 44.5011C14.8255 44.5011 7.38892 37.0645 7.38892 27.891C7.38892 21.2513 11.2848 15.5179 16.9231 12.8588C17.797 12.4466 18.1713 11.4041 17.7591 10.5302C17.347 9.65631 16.3045 9.28199 15.4306 9.69414C8.61353 12.9092 3.89001 19.8468 3.89001 27.891C3.89001 38.9969 12.8931 48 23.999 48C35.1048 48 44.1079 38.9969 44.1079 27.891C44.1079 19.8206 39.3537 12.8641 32.5007 9.66286Z" fill="#373737"/>
</svg>
