<svg width="36" height="36" viewBox="0 0 36 36" fill="none" xmlns="http://www.w3.org/2000/svg">
<path d="M18.0017 19.6044C18.7273 19.6044 19.3155 20.1926 19.3155 20.9182C19.3155 21.6437 18.7273 22.2319 18.0017 22.2319C17.2761 22.2319 16.6879 21.6437 16.6879 20.9182C16.6879 20.1926 17.2761 19.6044 18.0017 19.6044Z" fill="#373737"/>
<path fill-rule="evenodd" clip-rule="evenodd" d="M16.6986 1.31209C16.6986 0.587442 17.286 0 18.0107 0H23.1898C23.9145 0 24.5019 0.587442 24.5019 1.31209C24.5019 2.03674 23.9145 2.62418 23.1898 2.62418H19.3228V12.7964C23.2384 13.4284 26.2288 16.824 26.2288 20.918C26.2288 25.4618 22.5454 29.1452 18.0017 29.1452C13.458 29.1452 9.77459 25.4618 9.77459 20.918C9.77459 16.8178 12.7741 13.4181 16.6986 12.7936V1.31209ZM12.3988 20.918C12.3988 17.8236 14.9073 15.3151 18.0017 15.3151C21.0961 15.3151 23.6046 17.8236 23.6046 20.918C23.6046 24.0125 21.0961 26.521 18.0017 26.521C14.9073 26.521 12.3988 24.0125 12.3988 20.918Z" fill="#373737"/>
<path d="M24.378 7.24715C23.7215 6.94045 22.9406 7.22406 22.6339 7.8806C22.3272 8.53715 22.6108 9.31801 23.2674 9.6247C27.5183 11.6104 30.4592 15.9223 30.4592 20.9183C30.4592 27.7984 24.8818 33.3758 18.0017 33.3758C11.1216 33.3758 5.54416 27.7984 5.54416 20.9183C5.54416 15.9384 8.46609 11.6384 12.6948 9.64406C13.3502 9.33496 13.6309 8.55306 13.3218 7.89764C13.0127 7.24223 12.2308 6.9615 11.5754 7.2706C6.46262 9.68191 2.91998 14.8851 2.91998 20.9183C2.91998 29.2477 9.6723 36 18.0017 36C26.3311 36 33.0834 29.2477 33.0834 20.9183C33.0834 14.8654 29.5177 9.64809 24.378 7.24715Z" fill="#373737"/>
</svg>
